#!OML:ASF H:\Dans Jumps\Project 1\Capture day 1\Session 1\subject.ASF
:FULLY-SPECIFIED
:DEGREES
202
root 0.425793 16.7193 -15.1282 10.5567 -1.23382 -2.55033
lowerback 7.96288 0.170448 0.722708
upperback 4.52119 0.285556 2.32262
thorax 0.19944 0.126714 1.96538
lowerneck -15.7747 0.507781 -1.64205
upperneck 21.9673 1.11214 0.0967336
head 9.53737 0.388093 0.449809
rclavicle 6.75868e-015 3.49861e-014
rhumerus -19.7052 -11.8584 -81.4952
rradius 26.7658
rwrist 28.0424
rhand -20.917 -26.5902
rfingers 7.12502
rthumb 5.4545 -56.5
lclavicle 6.75868e-015 3.49861e-014
lhumerus -19.5571 -8.17259 88.9763
lradius 24.665
lwrist 12.3584
lhand -27.8718 -5.00029
lfingers 7.12502
lthumb -1.26205 24.9757
rfemur -34.1954 -2.27113 20.7769
rtibia 44.4699
rfoot -19.8632 -4.25165
rtoes 2.46836
lfemur -33.9029 9.92347 -18.3655
ltibia 44.8801
lfoot -17.7924 9.45035
ltoes -8.76467
203
root 0.427504 16.671 -15.1692 10.8249 -1.24318 -2.53897
lowerback 8.31823 0.166513 0.697829
upperback 4.54798 0.285336 2.31674
thorax 0.0315133 0.126334 1.97299
lowerneck -15.8577 0.523108 -1.62789
upperneck 21.6181 1.13482 0.0700988
head 9.43048 0.399558 0.439855
rclavicle 3.77691e-015 -8.74653e-015
rhumerus -19.9412 -12.0296 -81.2718
rradius 26.6841
rwrist 28.0807
rhand -20.9105 -26.6163
rfingers 7.12502
rthumb 5.46077 -56.5259
lclavicle 3.77691e-015 -8.74653e-015
lhumerus -19.778 -7.82169 88.8077
lradius 24.5601
lwrist 12.464
lhand -27.8836 -4.80748
lfingers 7.12502
lthumb -1.27354 25.1685
rfemur -35.1974 -2.29451 20.7872
rtibia 45.4837
rfoot -20.1881 -4.29118
rtoes 2.51951
lfemur -34.8904 9.90467 -18.4585
ltibia 45.8576
lfoot -18.046 9.62645
ltoes -8.818
204
root 0.429242 16.6209 -15.2103 11.0942 -1.2434 -2.51386
lowerback 8.69119 0.15924 0.665253
upperback 4.57005 0.280345 2.30504
thorax -0.150565 0.12359 1.97941
lowerneck -15.9422 0.540342 -1.60922
upperneck 21.2641 1.15919 0.0417648
head 9.32268 0.412055 0.428795
rclavicle -1.98785e-015 -1.19271e-015
rhumerus -20.205 -12.1788 -81.0498
rradius 26.6193
rwrist 28.0921
rhand -20.8882 -26.6772
rfingers 7.12502
rthumb 5.48232 -56.5863
lclavicle -1.98785e-015 -1.19271e-015
lhumerus -20.0202 -7.48618 88.6375
lradius 24.4476
lwrist 12.5931
lhand -27.9397 -4.79
lfingers 7.12502
lthumb -1.32767 25.1856
rfemur -36.2092 -2.32912 20.7838
rtibia 46.515
rfoot -20.5238 -4.34116
rtoes 2.56098
lfemur -35.8847 9.86603 -18.5639
ltibia 46.8441
lfoot -18.3033 9.80978
ltoes -8.863
205
root 0.430856 16.569 -15.2515 11.3636 -1.241 -2.47726
lowerback 9.07931 0.151306 0.623292
upperback 4.59136 0.273706 2.28886
thorax -0.341419 0.119992 1.98679
lowerneck -16.0345 0.559061 -1.58625
upperneck 20.9068 1.18559 0.00853141
head 9.21562 0.425341 0.415657
rclavicle 8.54774e-015 9.14409e-015
rhumerus -20.4877 -12.3179 -80.8256
rradius 26.5589
rwrist 28.1036
rhand -20.8631 -26.7281
rfingers 7.12502
rthumb 5.50654 -56.6366
lclavicle 8.54774e-015 9.14409e-015
lhumerus -20.2718 -7.16878 88.4665
lradius 24.3305
lwrist 12.7437
lhand -27.9962 -4.82571
lfingers 7.12502
lthumb -1.38225 25.1496
rfemur -37.2316 -2.3672 20.7688
rtibia 47.5621
rfoot -20.8644 -4.40685
rtoes 2.56735
lfemur -36.8862 9.81475 -18.6797
ltibia 47.8415
lfoot -18.5635 10.0016
ltoes -8.90022
206
root 0.432387 16.5149 -15.2926 11.6318 -1.23878 -2.43193
lowerback 9.48307 0.143917 0.574308
upperback 4.61174 0.267052 2.26897
thorax -0.541482 0.116404 1.99448
lowerneck -16.1351 0.576259 -1.569
upperneck 20.546 1.20938 -0.0163792
head 9.10927 0.437919 0.406063
rclavicle -5.96354e-016 -5.1684e-015
rhumerus -20.7944 -12.4287 -80.6014
rradius 26.5129
rwrist 28.0853
rhand -20.8273 -26.7893
rfingers 7.12502
rthumb 5.54114 -56.6969
lclavicle -5.96354e-016 -5.1684e-015
lhumerus -20.5332 -6.87098 88.2954
lradius 24.2123
lwrist 12.913
lhand -28.0367 -4.85407
lfingers 7.12502
lthumb -1.4214 25.1209
rfemur -38.2638 -2.40362 20.745
rtibia 48.6249
rfoot -21.2057 -4.49663
rtoes 2.51386
lfemur -37.8938 9.75649 -18.8037
ltibia 48.8516
lfoot -18.8256 10.2029
ltoes -8.93743
207
root 0.433793 16.4587 -15.3335 11.9008 -1.23438 -2.37996
lowerback 9.89601 0.136322 0.519727
upperback 4.6327 0.259246 2.24718
thorax -0.74559 0.112267 2.00367
lowerneck -16.2415 0.589413 -1.5653
upperneck 20.1789 1.22812 -0.0287033
head 9.00208 0.44855 0.40242
rclavicle 1.98785e-016 2.0276e-014
rhumerus -21.1116 -12.5359 -80.3718
rradius 26.4556
rwrist 28.0809
rhand -20.7935 -26.8139
rfingers 7.12502
rthumb 5.57369 -56.7206
lclavicle 1.98785e-016 2.0276e-014
lhumerus -20.8092 -6.59108 88.1282
lradius 24.099
lwrist 13.0758
lhand -28.079 -4.84615
lfingers 7.12502
lthumb -1.46221 25.1286
rfemur -39.3085 -2.44017 20.7159
rtibia 49.703
rfoot -21.5453 -4.61018
rtoes 2.39156
lfemur -38.9122 9.69193 -18.9337
ltibia 49.8772
lfoot -19.0901 10.409
ltoes -8.96933
